# ProBuilder 4.5.2
# https://unity3d.com/unity/features/worldbuilding/probuilder
# 11/5/2022 2:44:43 PM

mtllib ./Floor.mtl
o Floor

g Floor
v -1 0 0
v 0 0 0
v -0.9951847 0 0.09801714
v -0.9807853 0 0.1950903
v -0.9569404 0 0.2902847
v -0.9238795 0 0.3826835
v -0.8819213 0 0.4713967
v -0.8314696 0 0.5555702
v -0.7730105 0 0.6343933
v -0.7071068 0 0.7071068
v -0.6343933 0 0.7730104
v -0.5555702 0 0.8314696
v -0.4713968 0 0.8819212
v -0.3826834 0 0.9238795
v -0.2902846 0 0.9569404
v -0.1950904 0 0.9807853
v -0.09801716 0 0.9951847
v 0 0 1
v 0.0980171 0 0.9951847
v 0.1950903 0 0.9807853
v 0.2902848 0 0.9569403
v 0.3826834 0 0.9238796
v 0.4713967 0 0.8819213
v 0.5555701 0 0.8314697
v 0.6343932 0 0.7730105
v 0.7071068 0 0.7071068
v 0.7730105 0 0.6343933
v 0.8314697 0 0.5555702
v 0.8819213 0 0.4713968
v 0.9238795 0 0.3826835
v 0.9569404 0 0.2902847
v 0.9807854 0 0.1950903
v 0.9951847 0 0.0980171
v 1 0 -8.742278E-08
v 0.9951847 0 -0.09801703
v 0.9807854 0 -0.1950902
v 0.9569404 0 -0.2902846
v 0.9238795 0 -0.3826834
v 0.8819213 0 -0.4713968
v 0.8314695 0 -0.5555703
v 0.7730105 0 -0.6343932
v 0.7071068 0 -0.7071067
v 0.6343933 0 -0.7730104
v 0.5555704 0 -0.8314695
v 0.4713967 0 -0.8819213
v 0.3826835 0 -0.9238795
v 0.2902845 0 -0.9569404
v 0.1950904 0 -0.9807853
v 0.09801745 0 -0.9951847
v 0 0 -1
v -0.09801698 0 -0.9951847
v -0.1950904 0 -0.9807853
v -0.2902846 0 -0.9569404
v -0.3826836 0 -0.9238794
v -0.4713967 0 -0.8819213
v -0.5555701 0 -0.8314697
v -0.6343933 0 -0.7730104
v -0.7071066 0 -0.7071069
v -0.7730106 0 -0.6343932
v -0.8314696 0 -0.5555703
v -0.8819211 0 -0.471397
v -0.9238796 0 -0.3826834
v -0.9569403 0 -0.2902848
v -0.9807853 0 -0.1950902
v -0.9951847 0 -0.09801725

vt 1 0
vt 0 0
vt 0.9951847 0.09801714
vt 0.9807853 0.1950903
vt 0.9569404 0.2902847
vt 0.9238795 0.3826835
vt 0.8819213 0.4713967
vt 0.8314696 0.5555702
vt 0.7730105 0.6343933
vt 0.7071068 0.7071068
vt 0.6343933 0.7730104
vt 0.5555702 0.8314696
vt 0.4713968 0.8819212
vt 0.3826834 0.9238795
vt 0.2902846 0.9569404
vt 0.1950904 0.9807853
vt 0.09801716 0.9951847
vt 0 1
vt -0.0980171 0.9951847
vt -0.1950903 0.9807853
vt -0.2902848 0.9569403
vt -0.3826834 0.9238796
vt -0.4713967 0.8819213
vt -0.5555701 0.8314697
vt -0.6343932 0.7730105
vt -0.7071068 0.7071068
vt -0.7730105 0.6343933
vt -0.8314697 0.5555702
vt -0.8819213 0.4713968
vt -0.9238795 0.3826835
vt -0.9569404 0.2902847
vt -0.9807854 0.1950903
vt -0.9951847 0.0980171
vt -1 -8.742278E-08
vt -0.9951847 -0.09801703
vt -0.9807854 -0.1950902
vt -0.9569404 -0.2902846
vt -0.9238795 -0.3826834
vt -0.8819213 -0.4713968
vt -0.8314695 -0.5555703
vt -0.7730105 -0.6343932
vt -0.7071068 -0.7071067
vt -0.6343933 -0.7730104
vt -0.5555704 -0.8314695
vt -0.4713967 -0.8819213
vt -0.3826835 -0.9238795
vt -0.2902845 -0.9569404
vt -0.1950904 -0.9807853
vt -0.09801745 -0.9951847
vt 0 -1
vt 0.09801698 -0.9951847
vt 0.1950904 -0.9807853
vt 0.2902846 -0.9569404
vt 0.3826836 -0.9238794
vt 0.4713967 -0.8819213
vt 0.5555701 -0.8314697
vt 0.6343933 -0.7730104
vt 0.7071066 -0.7071069
vt 0.7730106 -0.6343932
vt 0.8314696 -0.5555703
vt 0.8819211 -0.471397
vt 0.9238796 -0.3826834
vt 0.9569403 -0.2902848
vt 0.9807853 -0.1950902
vt 0.9951847 -0.09801725

vn 0 1 0

usemtl Fadeout
f 3/3/1 2/2/1 1/1/1
f 4/4/1 2/2/1 3/3/1
f 5/5/1 2/2/1 4/4/1
f 6/6/1 2/2/1 5/5/1
f 7/7/1 2/2/1 6/6/1
f 8/8/1 2/2/1 7/7/1
f 9/9/1 2/2/1 8/8/1
f 10/10/1 2/2/1 9/9/1
f 11/11/1 2/2/1 10/10/1
f 12/12/1 2/2/1 11/11/1
f 13/13/1 2/2/1 12/12/1
f 14/14/1 2/2/1 13/13/1
f 15/15/1 2/2/1 14/14/1
f 16/16/1 2/2/1 15/15/1
f 17/17/1 2/2/1 16/16/1
f 18/18/1 2/2/1 17/17/1
f 19/19/1 2/2/1 18/18/1
f 20/20/1 2/2/1 19/19/1
f 21/21/1 2/2/1 20/20/1
f 22/22/1 2/2/1 21/21/1
f 23/23/1 2/2/1 22/22/1
f 24/24/1 2/2/1 23/23/1
f 25/25/1 2/2/1 24/24/1
f 26/26/1 2/2/1 25/25/1
f 27/27/1 2/2/1 26/26/1
f 28/28/1 2/2/1 27/27/1
f 29/29/1 2/2/1 28/28/1
f 30/30/1 2/2/1 29/29/1
f 31/31/1 2/2/1 30/30/1
f 32/32/1 2/2/1 31/31/1
f 33/33/1 2/2/1 32/32/1
f 34/34/1 2/2/1 33/33/1
f 35/35/1 2/2/1 34/34/1
f 36/36/1 2/2/1 35/35/1
f 37/37/1 2/2/1 36/36/1
f 38/38/1 2/2/1 37/37/1
f 39/39/1 2/2/1 38/38/1
f 40/40/1 2/2/1 39/39/1
f 41/41/1 2/2/1 40/40/1
f 42/42/1 2/2/1 41/41/1
f 43/43/1 2/2/1 42/42/1
f 44/44/1 2/2/1 43/43/1
f 45/45/1 2/2/1 44/44/1
f 46/46/1 2/2/1 45/45/1
f 47/47/1 2/2/1 46/46/1
f 48/48/1 2/2/1 47/47/1
f 49/49/1 2/2/1 48/48/1
f 50/50/1 2/2/1 49/49/1
f 51/51/1 2/2/1 50/50/1
f 52/52/1 2/2/1 51/51/1
f 53/53/1 2/2/1 52/52/1
f 54/54/1 2/2/1 53/53/1
f 55/55/1 2/2/1 54/54/1
f 56/56/1 2/2/1 55/55/1
f 57/57/1 2/2/1 56/56/1
f 58/58/1 2/2/1 57/57/1
f 59/59/1 2/2/1 58/58/1
f 60/60/1 2/2/1 59/59/1
f 61/61/1 2/2/1 60/60/1
f 62/62/1 2/2/1 61/61/1
f 63/63/1 2/2/1 62/62/1
f 64/64/1 2/2/1 63/63/1
f 65/65/1 2/2/1 64/64/1
f 1/1/1 2/2/1 65/65/1

